<svg width="20" height="30" viewBox="0 0 20 30" fill="none" xmlns="http://www.w3.org/2000/svg">
<path d="M10.9855 0H9.01475V10.3516C9.01475 11.2308 8.90527 12 8.6863 12.6593C8.48922 13.2967 8.22646 13.8791 7.89801 14.4066C7.56955 14.9341 7.2192 15.4286 6.84695 15.8901C6.4966 16.3297 6.1572 16.7912 5.82874 17.2747C5.50029 17.7582 5.22658 18.2857 5.00761 18.8571C4.81054 19.4066 4.712 20.0549 4.712 20.8022C4.712 22.1868 5.10614 23.5165 5.89443 24.7912C6.68273 26.0659 7.85421 27.2527 9.4089 28.3516L9.01475 27.6593V30H10.9855V27.0659C9.58407 26.0549 8.51112 25.011 7.76662 23.9341C7.04402 22.8791 6.68273 21.8352 6.68273 20.8022C6.68273 19.9451 6.9017 19.1978 7.33963 18.5604C7.79947 17.9011 8.29215 17.2088 8.81768 16.4835C9.3651 15.7582 9.85778 14.9231 10.2957 13.978C10.7556 13.011 10.9855 11.8022 10.9855 10.3516V0ZM6.28858 12.1978C5.21563 12.1978 4.3507 12.4615 3.69379 12.989C3.03688 13.5165 2.70843 14.2527 2.70843 15.1978C2.70843 15.8571 2.86171 16.3846 3.16826 16.7802C3.47482 17.1758 3.85802 17.5275 4.31785 17.8352C4.79959 18.1209 5.31417 18.3846 5.86159 18.6264C6.40901 18.8462 6.91264 19.1209 7.37248 19.4505C7.85421 19.7802 8.24836 20.1868 8.55492 20.6703C8.86147 21.1319 9.01475 21.7473 9.01475 22.5165V24.7253H10.9855V23.1758L10.8212 22.9451V22.5165C10.8212 21.5275 10.668 20.7143 10.3614 20.0769C10.0549 19.4176 9.67166 18.8791 9.21182 18.4615C8.77388 18.044 8.2812 17.7143 7.73378 17.4725C7.20825 17.2088 6.71557 16.978 6.25573 16.7802C5.8178 16.5604 5.44555 16.3407 5.13899 16.1209C4.83243 15.9011 4.67915 15.6154 4.67915 15.2637C4.67915 14.8242 4.92002 14.4725 5.40175 14.2088C5.88349 13.9451 6.5185 13.8132 7.30679 13.8132V13.7473C7.30679 12.4066 7.16446 11.1868 6.8798 10.0879C6.61703 8.98901 6.20099 7.96703 5.63167 7.02198C5.06235 6.05495 4.31785 5.15385 3.39818 4.31868C2.50041 3.46154 1.41651 2.63736 0.146484 1.84615V23.7363H10.0001V21.7582H2.11721V5.53846L1.32892 5.10989C1.98583 5.63736 2.5442 6.17582 3.00404 6.72527C3.48577 7.25275 3.87991 7.83516 4.18647 8.47253C4.51493 9.08791 4.76674 9.78022 4.94192 10.5494C5.13899 11.3187 5.28132 12.1978 5.36891 13.1868L6.28858 12.1978ZM9.01475 0V10.3516C9.01475 11.8022 9.23372 13.011 9.67166 13.978C10.1315 14.9231 10.6242 15.7582 11.1497 16.4835C11.6971 17.2088 12.1898 17.9011 12.6277 18.5604C13.0876 19.1978 13.3175 19.9451 13.3175 20.8022C13.3175 21.8352 12.9453 22.8791 12.2008 23.9341C11.4782 25.011 10.4162 26.0549 9.01475 27.0659V30H10.9855V27.6593L10.5913 28.3516C12.146 27.2527 13.3175 26.0659 14.1058 24.7912C14.8941 23.5165 15.2882 22.1868 15.2882 20.8022C15.2882 20.0549 15.1787 19.4066 14.9598 18.8571C14.7627 18.2857 14.4999 17.7582 14.1715 17.2747C13.843 16.7912 13.4927 16.3297 13.1204 15.8901C12.7701 15.4286 12.4307 14.9341 12.1022 14.4066C11.7738 13.8791 11.5001 13.2967 11.2811 12.6593C11.084 12 10.9855 11.2308 10.9855 10.3516V0H9.01475ZM13.7116 12.1978L14.6313 13.1868C14.7408 12.1978 14.8831 11.3187 15.0583 10.5494C15.2335 9.78022 15.4744 9.08791 15.7809 8.47253C16.1094 7.83516 16.5035 7.25275 16.9633 6.72527C17.4451 6.17582 18.0144 5.63736 18.6713 5.10989L17.883 5.53846V21.7582H10.0001V23.7363H19.8537V1.84615C18.5837 2.63736 17.4889 3.46154 16.5692 4.31868C15.6714 5.15385 14.9379 6.05495 14.3686 7.02198C13.7992 7.96703 13.3722 8.98901 13.0876 10.0879C12.8248 11.1868 12.6934 12.4066 12.6934 13.7473V13.8132C13.4817 13.8132 14.1167 13.9451 14.5985 14.2088C15.0802 14.4725 15.3211 14.8242 15.3211 15.2637C15.3211 15.6154 15.1678 15.9011 14.8612 16.1209C14.5547 16.3407 14.1715 16.5604 13.7116 16.7802C13.2737 16.978 12.781 17.2088 12.2336 17.4725C11.7081 17.7143 11.2154 18.044 10.7556 18.4615C10.3176 18.8791 9.94537 19.4176 9.63881 20.0769C9.33226 20.7143 9.17898 21.5275 9.17898 22.5165V22.9451L9.01475 23.1758V24.7253H10.9855V22.5165C10.9855 21.7473 11.1388 21.1319 11.4453 20.6703C11.7519 20.1868 12.1351 19.7802 12.5949 19.4505C13.0766 19.1209 13.5912 18.8462 14.1386 18.6264C14.6861 18.3846 15.1897 18.1209 15.6495 17.8352C16.1313 17.5275 16.5254 17.1758 16.832 16.7802C17.1385 16.3846 17.2918 15.8571 17.2918 15.1978C17.2918 14.2527 16.9633 13.5165 16.3064 12.989C15.6495 12.4615 14.7846 12.1978 13.7116 12.1978Z" fill="url(#paint0_linear_3301_14373)"/>
<defs>
<linearGradient id="paint0_linear_3301_14373" x1="0.146484" y1="0" x2="20.3312" y2="0.698419" gradientUnits="userSpaceOnUse">
<stop stop-color="#0057B8"/>
<stop offset="1" stop-color="#FFD700"/>
</linearGradient>
</defs>
</svg>
