<svg width="15" height="20" viewBox="0 0 15 20" fill="none" xmlns="http://www.w3.org/2000/svg">
<path d="M8.1569 0H6.84309V6.9011C6.84309 7.48718 6.7701 8 6.62412 8.43956C6.49273 8.86447 6.31756 9.25275 6.09859 9.60439C5.87962 9.95604 5.64605 10.2857 5.39789 10.5934C5.16432 10.8864 4.93805 11.1941 4.71908 11.5165C4.50011 11.8388 4.31764 12.1905 4.17166 12.5714C4.04028 12.9377 3.97458 13.37 3.97458 13.8681C3.97458 14.7912 4.23735 15.6777 4.76288 16.5275C5.2884 17.3773 6.06939 18.1685 7.10585 18.9011L6.84309 18.4396V20H8.1569V18.044C7.22263 17.37 6.50733 16.674 6.011 15.956C5.52927 15.2527 5.2884 14.5568 5.2884 13.8681C5.2884 13.2967 5.43438 12.7985 5.72634 12.3736C6.0329 11.9341 6.36135 11.4725 6.7117 10.989C7.07665 10.5055 7.40511 9.94872 7.69707 9.31868C8.00362 8.67399 8.1569 7.86813 8.1569 6.9011V0ZM5.02564 8.13187C4.31034 8.13187 3.73372 8.30769 3.29578 8.65934C2.85784 9.01099 2.63887 9.50183 2.63887 10.1319C2.63887 10.5714 2.74106 10.9231 2.94543 11.1868C3.1498 11.4506 3.40526 11.685 3.71182 11.8901C4.03298 12.0806 4.37603 12.2564 4.74098 12.4176C5.10593 12.5641 5.44168 12.7473 5.74824 12.967C6.06939 13.1868 6.33216 13.4579 6.53653 13.7802C6.7409 14.0879 6.84309 14.4982 6.84309 15.011V16.4835H8.1569V15.4505L8.04742 15.2967V15.011C8.04742 14.3516 7.94523 13.8095 7.74086 13.3846C7.53649 12.9451 7.28103 12.5861 6.97447 12.3077C6.68251 12.0293 6.35405 11.8095 5.98911 11.6484C5.63875 11.4725 5.3103 11.3187 5.00374 11.1868C4.71178 11.0403 4.46362 10.8938 4.25925 10.7473C4.05487 10.6007 3.95269 10.4103 3.95269 10.1758C3.95269 9.88278 4.11327 9.64835 4.43442 9.47253C4.75558 9.2967 5.17892 9.20879 5.70444 9.20879V9.16483C5.70444 8.27106 5.60956 7.45788 5.41978 6.72527C5.24461 5.99267 4.96725 5.31136 4.5877 4.68132C4.20815 4.03663 3.71182 3.4359 3.09871 2.87912C2.50019 2.30769 1.77759 1.75824 0.930908 1.23077V15.8242H7.49999V14.5055H2.24473V3.69231L1.7192 3.40659C2.15714 3.75824 2.52939 4.11722 2.83594 4.48352C3.1571 4.83516 3.41986 5.22344 3.62423 5.64835C3.8432 6.05861 4.01108 6.52015 4.12786 7.03297C4.25925 7.54579 4.35413 8.13187 4.41252 8.79121L5.02564 8.13187ZM6.84309 0V6.9011C6.84309 7.86813 6.98907 8.67399 7.28102 9.31868C7.58758 9.94872 7.91604 10.5055 8.26639 10.989C8.63134 11.4725 8.95979 11.9341 9.25175 12.3736C9.55831 12.7985 9.71159 13.2967 9.71159 13.8681C9.71159 14.5568 9.46342 15.2527 8.96709 15.956C8.48536 16.674 7.77736 17.37 6.84309 18.044V20H8.1569V18.4396L7.89414 18.9011C8.9306 18.1685 9.71159 17.3773 10.2371 16.5275C10.7626 15.6777 11.0254 14.7912 11.0254 13.8681C11.0254 13.37 10.9524 12.9377 10.8064 12.5714C10.6751 12.1905 10.4999 11.8388 10.2809 11.5165C10.0619 11.1941 9.82837 10.8864 9.58021 10.5934C9.34664 10.2857 9.12037 9.95604 8.9014 9.60439C8.68243 9.25275 8.49996 8.86447 8.35398 8.43956C8.22259 8 8.1569 7.48718 8.1569 6.9011V0H6.84309ZM9.97435 8.13187L10.5875 8.79121C10.6605 8.13187 10.7553 7.54579 10.8721 7.03297C10.9889 6.52015 11.1495 6.05861 11.3539 5.64835C11.5728 5.22344 11.8356 4.83516 12.1421 4.48352C12.4633 4.11722 12.8429 3.75824 13.2808 3.40659L12.7553 3.69231V14.5055H7.49999V15.8242H14.0691V1.23077C13.2224 1.75824 12.4925 2.30769 11.8794 2.87912C11.2809 3.4359 10.7918 4.03663 10.4123 4.68132C10.0327 5.31136 9.74808 5.99267 9.55831 6.72527C9.38313 7.45788 9.29554 8.27106 9.29554 9.16483V9.20879C9.82107 9.20879 10.2444 9.2967 10.5656 9.47253C10.8867 9.64835 11.0473 9.88278 11.0473 10.1758C11.0473 10.4103 10.9451 10.6007 10.7407 10.7473C10.5364 10.8938 10.2809 11.0403 9.97435 11.1868C9.68239 11.3187 9.35394 11.4725 8.98899 11.6484C8.63864 11.8095 8.31018 12.0293 8.00362 12.3077C7.71167 12.5861 7.4635 12.9451 7.25913 13.3846C7.05476 13.8095 6.95257 14.3516 6.95257 15.011V15.2967L6.84309 15.4505V16.4835H8.1569V15.011C8.1569 14.4982 8.25909 14.0879 8.46346 13.7802C8.66783 13.4579 8.9233 13.1868 9.22985 12.967C9.55101 12.7473 9.89406 12.5641 10.259 12.4176C10.624 12.2564 10.9597 12.0806 11.2663 11.8901C11.5874 11.685 11.8502 11.4506 12.0546 11.1868C12.2589 10.9231 12.3611 10.5714 12.3611 10.1319C12.3611 9.50183 12.1421 9.01099 11.7042 8.65934C11.2663 8.30769 10.6897 8.13187 9.97435 8.13187Z" fill="white"/>
</svg>
