<svg width="60" height="31" viewBox="0 0 60 31" fill="none" xmlns="http://www.w3.org/2000/svg">
<path d="M47.5435 20.8199C47.3857 20.7883 47.2563 20.7704 47.1331 20.7321C46.4767 20.5281 46.1239 20.0639 46.029 19.398C45.9894 19.119 45.969 18.8352 45.9672 18.5532C45.9601 17.5379 45.9587 16.5231 45.9681 15.5078C45.9705 15.2382 45.9917 14.9628 46.0512 14.7012C46.2349 13.889 46.7024 13.5424 47.501 13.4172C47.6398 13.3955 47.7829 13.3979 47.9246 13.3974C48.8799 13.396 49.8347 13.3979 50.7901 13.3955C51.0876 13.395 51.3742 13.4371 51.6575 13.5339C52.1175 13.6907 52.4117 14.0037 52.5656 14.4543C52.6573 14.723 52.7083 15.002 52.7087 15.2877C52.7101 16.5155 52.7116 17.7429 52.7078 18.9707C52.7068 19.255 52.6473 19.5317 52.5543 19.8013C52.4145 20.2051 52.1482 20.4875 51.7581 20.6528C51.5069 20.759 51.2448 20.835 50.9705 20.8355C49.8621 20.8379 48.7538 20.8341 47.645 20.8322C47.6214 20.8322 47.5978 20.827 47.5435 20.8199ZM50.8278 17.0529C50.8278 16.8173 50.8278 16.5812 50.8278 16.3455C50.8278 16.0273 50.8344 15.7085 50.8255 15.3907C50.816 15.0691 50.681 14.9208 50.3665 14.8632C50.2975 14.8505 50.2262 14.842 50.1563 14.842C49.6147 14.8401 49.0725 14.8339 48.5309 14.8434C48.0185 14.8523 47.8532 15.0224 47.8514 15.5305C47.8481 16.5798 47.8499 17.6295 47.8509 18.6788C47.8509 18.7728 47.8523 18.8687 47.8698 18.9603C47.9142 19.194 48.061 19.3286 48.3 19.3622C48.3812 19.3735 48.4643 19.3768 48.5465 19.3768C49.0768 19.3782 49.6066 19.3782 50.137 19.3768C50.2309 19.3763 50.3263 19.373 50.4184 19.356C50.6522 19.3126 50.7938 19.1615 50.8231 18.9272C50.8335 18.846 50.8283 18.7624 50.8283 18.6798C50.8278 18.1613 50.8278 17.6428 50.8278 17.0529Z" fill="#2B2B2B"/>
<path d="M36.375 19.2815C36.4789 19.1884 36.5445 19.1044 36.5455 18.9901C36.5474 18.6728 36.5464 18.3554 36.5464 18.0305C36.4038 17.9483 36.2631 17.9517 36.1247 17.9512C35.6529 17.9498 35.1812 17.9521 34.7094 17.9498C34.4266 17.9483 34.1437 17.9422 33.8608 17.9347C33.5251 17.9252 33.2091 17.8397 32.9149 17.6768C32.6925 17.5536 32.5192 17.3812 32.3974 17.1583C32.2363 16.8632 32.1485 16.5468 32.1433 16.2105C32.1381 15.88 32.1386 15.5494 32.1438 15.2188C32.1485 14.9327 32.2146 14.6602 32.3327 14.3972C32.5027 14.018 32.7879 13.7653 33.1737 13.6392C33.3957 13.5665 33.6318 13.5339 33.8637 13.4971C33.9907 13.4773 34.1224 13.4829 34.2518 13.4829C35.3134 13.482 36.3745 13.482 37.4361 13.4829C37.5508 13.4829 37.6656 13.4933 37.7733 13.4985C37.8285 13.7757 37.8375 14.5025 37.7955 14.8944C37.71 14.9832 37.5976 14.9497 37.4965 14.9501C36.6002 14.953 35.7039 14.9516 34.8076 14.952C34.7132 14.952 34.6183 14.9483 34.5248 14.9568C34.207 14.9851 34.0327 15.156 34.0044 15.4757C33.993 15.6047 33.9921 15.7364 34.0049 15.8649C34.0365 16.177 34.2216 16.3517 34.5361 16.3763C34.6183 16.3829 34.7009 16.3786 34.7836 16.3786C35.3498 16.3791 35.9155 16.3801 36.4817 16.3786C36.8028 16.3777 37.1159 16.4207 37.42 16.5255C37.8498 16.6738 38.1411 16.9628 38.2937 17.3892C38.3815 17.6343 38.4415 17.886 38.4372 18.1505C38.432 18.481 38.4367 18.8116 38.4349 19.1421C38.4334 19.3929 38.3777 19.6337 38.287 19.8661C38.1222 20.2883 37.821 20.5683 37.3941 20.7133C37.1811 20.7855 36.9634 20.8394 36.7367 20.8379C36.1001 20.8332 35.4626 20.8408 34.827 20.8148C34.0743 20.7841 33.3225 20.7246 32.5707 20.6745C32.4668 20.6675 32.3638 20.6434 32.268 20.6283C32.2099 20.3619 32.2019 19.6437 32.251 19.2588C32.4281 19.1998 32.616 19.2446 32.7997 19.2456C32.999 19.2465 33.1983 19.2763 33.3976 19.2848C34.1739 19.3173 34.9507 19.3504 35.7276 19.374C35.9363 19.3802 36.1535 19.4151 36.375 19.2815Z" fill="#2B2B2B"/>
<path d="M39.6377 16.9638C39.1995 15.8068 38.765 14.6782 38.3452 13.5373C38.6309 13.4726 39.8847 13.4594 40.3508 13.5085C40.5165 13.8966 40.6398 14.3141 40.7867 14.7226C40.9345 15.1329 41.0705 15.5476 41.2131 15.9598C41.3552 16.3726 41.4974 16.7848 41.6423 17.1966C41.7854 17.6027 41.9261 18.0103 42.0928 18.4688C42.2817 18.1137 42.3578 17.7812 42.4754 17.4653C42.5986 17.1338 42.7115 16.7985 42.8267 16.4642C42.9381 16.1407 43.0458 15.8163 43.1573 15.4928C43.2725 15.1584 43.3905 14.8251 43.5067 14.4912C43.6191 14.1686 43.7305 13.8461 43.8429 13.5203C44.0734 13.4504 44.2972 13.491 44.5178 13.4839C44.7298 13.4768 44.9423 13.4825 45.1543 13.4825C45.3772 13.4825 45.6001 13.4825 45.8542 13.4825C45.8315 13.5887 45.8244 13.6667 45.798 13.7375C45.4835 14.5767 45.1661 15.4149 44.8488 16.2531C44.343 17.5871 43.8368 18.9212 43.3306 20.2548C43.272 20.4087 43.212 20.5622 43.1549 20.7105C42.9089 20.769 41.6234 20.7851 41.1035 20.7374C40.9958 20.6524 40.9793 20.5159 40.9345 20.3979C40.5033 19.2626 40.0764 18.126 39.6377 16.9638Z" fill="#2B2B2B"/>
<path d="M58.4866 16.5411C58.14 17.215 57.8104 17.8676 57.4676 18.5136C57.3641 18.7082 57.3193 18.9028 57.3245 19.1214C57.3339 19.5459 57.3283 19.9709 57.3264 20.396C57.3259 20.4998 57.3174 20.6042 57.3117 20.7213C57.1049 20.7898 56.9042 20.7501 56.7082 20.7567C56.4962 20.7638 56.2837 20.7619 56.0717 20.7572C55.8747 20.753 55.675 20.7794 55.462 20.7322C55.454 20.6269 55.4417 20.5353 55.4412 20.4441C55.4389 20.0309 55.4313 19.6177 55.4436 19.205C55.4511 18.9608 55.3964 18.746 55.284 18.5292C54.5175 17.053 53.7591 15.5731 52.9984 14.0935C52.928 13.9571 52.8567 13.8215 52.792 13.6827C52.7689 13.6331 52.7632 13.576 52.749 13.5203C53.0286 13.4735 54.1057 13.4622 54.6361 13.4976C54.7433 13.5628 54.7716 13.6841 54.8221 13.7875C55.2877 14.7414 55.7501 15.6972 56.2147 16.6516C56.2601 16.7442 56.3139 16.8325 56.3847 16.96C56.959 15.7785 57.5143 14.6357 58.0626 13.5075C58.4909 13.4641 59.7366 13.4735 59.9874 13.5188C59.9916 13.5297 59.9983 13.5406 59.9997 13.5519C60.0006 13.5628 59.9978 13.575 59.994 13.5859C59.9864 13.6081 59.978 13.6303 59.968 13.6515C59.9425 13.7049 59.9161 13.7573 59.8892 13.8102C59.4254 14.7126 58.9617 15.6151 58.4866 16.5411Z" fill="#2B2B2B"/>
<path d="M4.36527 21.9472C3.50722 21.0849 2.66382 20.2429 1.82655 19.3943C0.951507 18.5069 0.351301 17.4595 0.121796 16.2317C-0.21585 14.4245 0.143991 12.7618 1.25799 11.2813C1.41335 11.0754 1.56635 10.8648 1.77933 10.708C1.90636 10.7161 1.96161 10.8176 2.03339 10.8889C3.53839 12.3873 5.04198 13.8876 6.54604 15.3864C8.7778 17.6097 11.01 19.8325 13.2428 22.0548C13.3849 22.196 13.5398 22.3249 13.6763 22.4718C13.8803 22.6919 14.3341 22.6753 14.5277 22.5223C14.7903 22.3145 14.8885 22.0161 14.7586 21.7044C14.71 21.5878 14.6325 21.4782 14.5485 21.3824C14.4167 21.2317 14.2694 21.0943 14.1272 20.9526C11.2112 18.0456 8.29518 15.138 5.37773 12.2319C4.62547 11.4825 3.86707 10.7397 3.11338 9.99166C3.01516 9.89438 2.9023 9.80607 2.83996 9.65826C2.89002 9.60349 2.93441 9.5506 2.98305 9.50196C5.01506 7.49639 7.04707 5.49082 9.07909 3.48525C10.0868 2.49073 11.0936 1.49527 12.1009 0.500747C12.2015 0.401106 12.2997 0.298633 12.4074 0.206548C12.7351 -0.0725411 13.1124 -0.0711252 13.4269 0.224964C13.7362 0.515859 14.0323 0.820921 14.3322 1.12173C15.9571 2.75093 17.5811 4.38013 19.2061 6.00933C19.2533 6.05655 19.3072 6.09669 19.3549 6.13778C19.4417 6.07261 19.4144 5.99705 19.4139 5.93236C19.4106 5.01151 19.4073 4.09065 19.3974 3.17027C19.3945 2.91621 19.4318 2.67774 19.5683 2.45909C19.7997 2.08886 20.1402 1.89761 20.5675 1.88486C21.0742 1.86975 21.5824 1.8655 22.0886 1.88533C22.8309 1.91461 23.3273 2.49782 23.2663 3.23497C23.2555 3.36389 23.247 3.49375 23.2479 3.62314C23.2574 4.83867 23.2715 6.05419 23.2791 7.26972C23.2843 8.11973 23.2852 8.96975 23.2782 9.8193C23.2767 10.0096 23.323 10.1551 23.4652 10.2887C23.7565 10.564 24.0328 10.8554 24.3161 11.1392C25.1435 11.9665 25.7304 12.9341 26.002 14.0784C26.4676 16.0414 26.0672 17.8194 24.8332 19.4103C24.7048 19.5761 24.5886 19.7579 24.3756 19.8769C24.2996 19.8079 24.2198 19.7414 24.1466 19.6682C22.8843 18.4111 21.6239 17.1521 20.3602 15.8955C18.7291 14.2734 17.0952 12.6532 15.4632 11.032C14.5173 10.0922 13.5714 9.15298 12.6298 8.20898C12.4645 8.04323 12.2903 7.92329 12.0452 7.92754C11.5833 7.93556 11.2603 8.36718 11.4029 8.8073C11.4417 8.92772 11.5153 9.0387 11.5857 9.14589C11.6301 9.21389 11.6971 9.26678 11.7557 9.32534C13.7358 11.2997 15.7144 13.2756 17.6968 15.2476C19.445 16.9868 21.1975 18.7213 22.9476 20.4587C23.0812 20.5914 23.2111 20.7274 23.3565 20.8761C23.3159 20.9295 23.2876 20.9777 23.2493 21.0154C21.9243 22.3264 20.5978 23.6363 19.2722 24.9472C17.5523 26.6477 15.8329 28.3487 14.1126 30.0488C14.0035 30.1564 13.8897 30.2594 13.7745 30.3604C13.4586 30.6362 13.0298 30.5852 12.7828 30.3312C12.5859 30.1281 12.3682 29.9458 12.168 29.7456C9.5721 27.154 6.97766 24.5595 4.36527 21.9472Z" fill="#2B2B2B"/>
</svg>
